<svg width="300" height="300" viewBox="0 0 300 300" fill="none" xmlns="http://www.w3.org/2000/svg">
<path d="M201.427 36.2582C179.697 28.0042 105.826 34.7081 71.2201 41.9871C65.7942 43.1853 53.6755 49.4749 48.6082 65.0481C42.274 84.5147 55.7421 133.811 57.5116 174.027C59.2811 214.244 53.7059 250.946 75.0958 270.152C92.2076 285.517 104.181 277.507 135.964 276.109C167.747 274.71 229.263 272.004 231.889 238.31C234.242 208.109 221.342 162.022 222.353 114.967C223.365 67.9123 228.589 46.5758 201.427 36.2582Z" fill="#FFD24B"/>
<path d="M132.817 20.6735C164.075 18.6446 194.755 14.5996 227.534 23.6671C234.799 26.6221 242.562 31.7678 246.636 39.8024C250.711 47.7237 251.209 56.0534 251.342 63.6894C251.327 79.0716 249.647 93.5512 248.908 108.225C246.054 148.899 256.649 188.784 253.676 232.608C252.073 249.127 237.005 259.354 224.736 263.57C199.557 272.22 174.18 271.817 149.619 271.866C139.299 271.75 129.255 272.85 118.138 273.367C107.266 274.521 92.489 269.973 84.7914 261.111C58.118 229.39 72.0942 191.892 70.6915 159.739C71.6006 125.079 62.4206 90.6157 67.1708 53.7931C67.5308 52.2123 67.9894 50.6156 68.597 49.0736C72.997 37.8252 82.365 28.2338 94.7502 25.6519L94.7747 25.6473C107.358 23.3309 120.106 21.8473 132.817 20.6735ZM223.737 32.4893C196.722 24.0984 163.677 26.1147 133.278 27.1435C120.68 27.8144 107.995 28.7723 95.5966 30.5044C85.9061 32.9392 77.7702 41.5456 74.4985 51.2893C74.0877 52.4692 73.7604 53.7772 73.5089 55.1226C70.3974 88.568 80.4744 123.958 80.62 159.739C82.0071 192.64 72.738 231.022 93.2309 252.491C105.593 267.236 127.75 258.118 149.619 259.036C173.875 258.879 198.712 258.732 220.211 251.241C231.015 247.368 239.819 240.602 240.738 231.023C243.753 192.085 233.662 149.684 237.291 107.462C237.598 79.4423 251.392 42.3988 223.737 32.4893Z" fill="black"/>
<path d="M132.757 75.2872C156.24 74.0458 179.785 73.9824 203.392 75.0978C205.078 75.1775 206.765 75.2636 208.452 75.3553C209.068 75.3893 209.67 75.6244 210.127 76.0515C210.584 76.4782 210.86 77.0559 210.892 77.6679C210.925 78.28 210.712 78.8844 210.303 79.357C209.893 79.8298 209.32 80.1264 208.711 80.2253C207.043 80.4943 205.375 80.758 203.706 81.015C180.349 84.6132 156.929 87.0323 133.447 88.2737C126.737 88.6284 119.982 88.1173 113.181 86.7405C111.481 86.3963 109.778 85.9979 108.072 85.5455C107.512 85.3948 106.967 85.132 106.555 84.7165C106.142 84.3014 105.895 83.7741 105.866 83.2202C105.836 82.6664 106.027 82.1166 106.393 81.6604C106.759 81.2038 107.272 80.8844 107.813 80.6755C109.461 80.0458 111.113 79.4698 112.767 78.9483C119.385 76.8621 126.048 75.6419 132.757 75.2872Z" fill="black"/>
<path d="M183.027 103.651C189.806 103.296 196.631 103.807 203.502 105.184C205.219 105.528 206.94 105.927 208.664 106.379C209.23 106.53 209.78 106.793 210.196 107.208C210.613 107.623 210.863 108.151 210.893 108.704C210.922 109.258 210.73 109.808 210.36 110.264C209.99 110.721 209.472 111.04 208.925 111.249C207.26 111.879 205.591 112.455 203.92 112.976C197.234 115.063 190.502 116.283 183.724 116.638C159.999 117.879 136.212 117.942 112.361 116.827C110.658 116.747 108.953 116.661 107.249 116.569C106.627 116.535 106.019 116.3 105.557 115.873C105.095 115.446 104.816 114.869 104.783 114.257C104.751 113.645 104.965 113.04 105.379 112.568C105.793 112.095 106.372 111.798 106.988 111.699C108.672 111.43 110.358 111.167 112.043 110.91C135.641 107.311 159.303 104.892 183.027 103.651Z" fill="black"/>
<path d="M125.839 136.816C143.039 135.693 160.316 135.768 177.669 137.041C178.909 137.132 180.149 137.229 181.389 137.332C181.998 137.384 182.593 137.621 183.048 138.047C183.504 138.474 183.782 139.049 183.821 139.66C183.859 140.27 183.657 140.876 183.26 141.358C182.862 141.841 182.302 142.153 181.705 142.283C180.488 142.547 179.271 142.804 178.053 143.055C161.006 146.573 143.882 148.893 126.682 150.015C121.768 150.336 116.797 149.777 111.77 148.337C110.513 147.977 109.253 147.563 107.989 147.093C107.453 146.891 106.933 146.609 106.537 146.197C106.141 145.786 105.901 145.28 105.867 144.746C105.833 144.212 106.007 143.679 106.348 143.219C106.688 142.76 107.168 142.413 107.674 142.142C108.867 141.512 110.064 140.937 111.265 140.417C116.067 138.337 120.925 137.136 125.839 136.816Z" fill="black"/>
</svg>
